HIERARCHY
ROOT Hips
{
	OFFSET 0.00000 0.00000 0.00000
	CHANNELS 6 Xposition Yposition Zposition Zrotation Yrotation Xrotation 
	JOINT LHipJoint
	{
		OFFSET 0 0 0
		CHANNELS 3 Zrotation Yrotation Xrotation
		JOINT LeftHip
		{
			OFFSET 1.64577 -1.42384 0.94276
			CHANNELS 3 Zrotation Yrotation Xrotation
			JOINT LeftKnee
			{
				OFFSET 2.11538 -5.81197 0.00000
				CHANNELS 3 Zrotation Yrotation Xrotation
				JOINT LeftAnkle
				{
					OFFSET 2.36541 -6.49893 0.00000
					CHANNELS 3 Zrotation Yrotation Xrotation
					JOINT LeftToe
					{
						OFFSET 0.17759 -0.48793 1.73865
						CHANNELS 3 Zrotation Yrotation Xrotation
						End Site
						{
							OFFSET 0.00000 -0.00000 0.91205
						}
					}
				}
			}
		}
	}
	JOINT RHipJoint
	{
		OFFSET 0 0 0
		CHANNELS 3 Zrotation Yrotation Xrotation
		JOINT RightHip
		{
			OFFSET -1.43750 -1.42384 0.94276
			CHANNELS 3 Zrotation Yrotation Xrotation
			JOINT RightKnee
			{
				OFFSET -2.10480 -5.78291 0.00000
				CHANNELS 3 Zrotation Yrotation Xrotation
				JOINT RightAnkle
				{
					OFFSET -2.34880 -6.45329 0.00000
					CHANNELS 3 Zrotation Yrotation Xrotation
					JOINT RightToe
					{
						OFFSET -0.22842 -0.62757 1.80469
						CHANNELS 3 Zrotation Yrotation Xrotation
						End Site
						{
							OFFSET -0.00000 -0.00000 0.95886
						}
					}
				}
			}
		}
	}
	JOINT lowerback
	{
		OFFSET 0 0 0
		CHANNELS 3 Zrotation Yrotation Xrotation
		JOINT Chest
		{
			OFFSET 0.06217 1.93758 -0.49272
			CHANNELS 3 Zrotation Yrotation Xrotation
			JOINT Chest2
			{
				OFFSET -0.03114 2.03621 -0.05830
				CHANNELS 3 Zrotation Yrotation Xrotation
				JOINT lowerneck
				{
					OFFSET 0 0 0
					CHANNELS 3 Zrotation Yrotation Xrotation
					JOINT Neck
					{
						OFFSET 0.04421 1.41010 0.26562
						CHANNELS 3 Zrotation Yrotation Xrotation
						JOINT Head
						{
							OFFSET -0.13407 1.43847 0.06181
							CHANNELS 3 Zrotation Yrotation Xrotation
							End Site
							{
								OFFSET -0.04980 1.45844 -0.00689
							}
						}
					}
				}
				JOINT LeftCollar
				{
					OFFSET 0 0 0
					CHANNELS 3 Zrotation Yrotation Xrotation
					JOINT LeftShoulder
					{
						OFFSET 2.18382 1.47753 -0.35694
CHANNELS 3 Zrotation Xrotation Yrotation
						JOINT LeftElbow
						{
OFFSET 0 -5.054600 0.000000
CHANNELS 3 Zrotation Xrotation Yrotation
							JOINT LeftWrist
							{
OFFSET 0 -3.390130 0.000000
CHANNELS 3 Zrotation Xrotation Yrotation
								JOINT lhand
								{
									OFFSET 0 0 0
CHANNELS 3 Zrotation Xrotation Yrotation
									JOINT LFingers
									{
OFFSET 0 -0.572420 -0.000000
CHANNELS 3 Zrotation Xrotation Yrotation
										End Site
										{
OFFSET 0 -0.461500 -0.000000
										}
									}
								}
								JOINT LThumb
								{
OFFSET 0 0.000000 0.000000
CHANNELS 3 Zrotation Xrotation Yrotation
									End Site
									{
OFFSET 0 -0.468550 0.468550
									}
								}
							}
						}
					}
				}
				JOINT RightCollar
				{
					OFFSET 0 0 0
					CHANNELS 3 Zrotation Yrotation Xrotation
					JOINT RightShoulder
					{
						OFFSET -2.06033 1.72839 -0.47437
CHANNELS 3 Zrotation Xrotation Yrotation
						JOINT RightElbow
						{
OFFSET 0 -5.070100 0.000000
CHANNELS 3 Zrotation Xrotation Yrotation
							JOINT RightWrist
							{
OFFSET 0 -3.149570 -0.000000
CHANNELS 3 Zrotation Xrotation Yrotation
								JOINT rhand
								{
									OFFSET 0 0 0
CHANNELS 3 Zrotation Xrotation Yrotation
									JOINT RFingers
									{
OFFSET 0 -0.718190 -0.000000
CHANNELS 3 Zrotation Xrotation Yrotation
										End Site
										{
OFFSET 0 -0.579020 -0.000000
										}
									}
								}
								JOINT RThumb
								{
OFFSET 0 0.000000 0.000000
CHANNELS 3 Zrotation Xrotation Yrotation
									End Site
									{
OFFSET 0 -0.587860 0.587860
									}
								}
							}
						}
					}
				}
			}
		}
	}
}
MOTION
Frames: 9
Frame Time: 0.008333333333333333
35.767000 14.940200 -0.409300 -141.901000 -87.166100 138.761000 0.000000 0.000000 0.000000 -18.583100 -5.903500 -21.808900 14.982000 19.385300 75.182400 0.290700 4.849000 -13.135300 0.629800 -5.078100 -14.131400 0.000000 0.000000 0.000000 30.134100 13.076500 -6.546500 -3.800600 -11.890200 35.344800 -2.449900 -11.282200 -35.274300 -1.267900 7.137000 -20.121800 -0.158600 0.731300 9.449800 1.796900 0.698300 6.230300 1.885500 0.201300 1.142400 3.677200 4.226400 -10.497700 -2.654000 5.420000 20.473800 -0.956600 2.478300 8.252100 0.000000 -0.000000 0.000000 -0.881700 2.306000 -20.831600 19.746200 -30.335400 5.402600 21.384800 -0.039700 -4.420000 0.000000 0.000000 0.000000 -7.125000 0.000000 0.000000 -4.356700 34.699300 -1.104400 0.000000 -0.000000 0.000000 -5.902800 3.166300 31.284600 -17.872900 -27.994100 -4.489400 -16.993400 -18.767400 -1.287600 0.000000 0.000000 0.000000 7.125000 0.000000 -0.000000 7.435200 28.601800 2.991500
35.572916 14.926485 -0.414859 -139.545716 -87.384467 136.265080 0.000000 0.000000 0.000000 -18.386156 -7.350446 -23.316753 14.595715 19.284643 74.015764 0.382195 4.462587 -14.178021 0.515240 -4.599387 -12.769784 0.000000 0.000000 0.000000 30.446483 12.933356 -5.404501 -3.802466 -11.892806 35.353805 -2.679596 -11.363769 -36.540237 -1.177450 6.887123 -19.381470 0.238752 0.881275 9.596351 1.491531 0.925387 6.293305 1.326421 0.331178 1.131196 3.893019 4.008301 -10.474688 -2.354645 5.014046 20.466666 -0.936161 2.333235 8.230053 0.000000 0.000000 0.000000 -0.287617 2.509934 -21.040867 19.293761 -29.781987 5.175956 21.122629 0.441522 -4.434222 0.000000 0.000000 0.000000 -7.125000 0.000000 0.000000 -4.574021 34.703577 -1.159297 0.000000 0.000000 0.000000 -5.382047 3.176484 30.876428 -18.115890 -28.305367 -4.604108 -16.875445 -18.793791 -1.208258 0.000000 0.000000 0.000000 7.125000 0.000000 0.000000 7.531992 28.683935 3.016308
35.379200 14.915448 -0.418092 -141.196828 -87.478646 137.727264 0.000000 0.000000 0.000000 -18.338037 -8.486550 -24.569378 13.942948 19.096003 72.029654 0.513208 3.887757 -15.512858 0.715357 -5.404069 -15.065114 0.000000 0.000000 0.000000 30.647839 12.637089 -4.041742 -3.722304 -11.781267 34.962693 -2.869556 -11.178313 -37.393461 -1.103618 6.674931 -18.755901 0.203423 1.120155 9.481941 1.467191 1.219376 6.588291 1.301003 0.469900 1.495055 3.811923 3.766070 -10.539350 -2.181897 4.659620 20.360001 -0.901600 2.178723 8.187360 0.000000 0.000000 0.000000 -0.278051 2.309906 -20.940180 18.779379 -29.143567 4.922940 21.091156 1.150696 -4.360572 0.000000 0.000000 0.000000 -7.125000 0.000000 0.000000 -4.593819 34.623564 -1.173286 0.000000 0.000000 0.000000 -5.458280 2.779016 30.735747 -18.317316 -28.561525 -4.699973 -16.670616 -19.050013 -1.220424 0.000000 0.000000 0.000000 7.125000 0.000000 0.000000 7.689494 28.671247 3.082791
35.171471 14.927354 -0.420610 -137.095648 -87.618162 133.771623 0.000000 0.000000 0.000000 -18.107841 -9.965914 -25.856878 13.156334 18.836691 69.609207 0.596579 4.252621 -16.756655 0.864433 -5.928258 -16.576499 0.000000 0.000000 0.000000 30.918483 12.340438 -3.002732 -3.623725 -11.641989 34.477100 -2.954824 -11.270285 -37.877238 -1.056679 6.536039 -18.347933 0.476266 1.115502 9.492624 1.340003 1.243805 6.466849 1.013078 0.497345 1.370798 3.902163 3.712728 -10.570326 -2.064714 4.539350 20.557582 -0.889365 2.137273 8.255194 0.000000 0.000000 0.000000 -0.135089 2.778140 -20.573485 18.502749 -28.795964 4.788982 21.061618 1.809128 -4.934129 0.000000 0.000000 0.000000 -7.125000 0.000000 0.000000 -4.667646 35.234257 -1.122758 0.000000 0.000000 0.000000 -5.426178 2.892497 31.077460 -18.580767 -28.894292 -4.826627 -16.557319 -19.346458 -1.319400 0.000000 0.000000 0.000000 7.125000 0.000000 0.000000 7.770077 28.568856 3.134576
34.967381 14.930705 -0.422573 -134.558743 -87.750344 131.293823 0.000000 0.000000 0.000000 -17.908077 -11.198276 -26.815319 12.254817 18.494117 66.791807 0.678292 4.281349 -17.696153 0.923973 -6.123781 -17.143973 0.000000 0.000000 0.000000 31.148066 11.996441 -1.809213 -3.493717 -11.454077 33.827398 -3.046623 -11.367593 -38.390276 -1.005053 6.379100 -17.888508 0.658189 1.195709 9.474471 1.224383 1.366219 6.453918 0.781997 0.567649 1.372702 3.909395 3.566003 -10.585381 -1.888856 4.295815 20.621928 -0.857367 2.039223 8.268048 0.000000 0.000000 0.000000 0.007931 3.046247 -20.296125 18.152744 -28.352236 4.621618 20.973665 2.440563 -5.172512 0.000000 0.000000 0.000000 -7.125000 0.000000 0.000000 -4.762239 35.484095 -1.116555 0.000000 0.000000 0.000000 -5.378574 2.901530 31.167430 -18.837515 -29.216143 -4.951277 -16.444939 -19.584277 -1.343088 0.000000 0.000000 0.000000 7.125000 0.000000 0.000000 7.855111 28.544375 3.174148
34.760349 14.940876 -0.423491 -131.796497 -87.880706 128.647270 0.000000 0.000000 0.000000 -17.723231 -12.342615 -27.532868 11.227695 18.041439 63.514853 0.744582 4.342196 -18.444124 0.951999 -6.213358 -17.404789 0.000000 0.000000 0.000000 31.334224 11.590050 -0.594893 -3.325489 -11.203741 32.970731 -3.099929 -11.505955 -38.734341 -0.960115 6.238992 -17.479506 0.807919 1.260012 9.429142 1.118062 1.467752 6.403205 0.580400 0.627265 1.350476 3.899270 3.427752 -10.597060 -1.730231 4.070631 20.685240 -0.826308 1.946911 8.280854 0.000000 0.000000 0.000000 0.109013 3.356837 -19.947081 17.833397 -27.943222 4.470971 20.890215 3.023912 -5.372986 0.000000 0.000000 0.000000 -7.125000 0.000000 0.000000 -4.850528 35.693554 -1.112586 0.000000 0.000000 0.000000 -5.365146 2.959768 31.280369 -19.099542 -29.542051 -5.079906 -16.359659 -19.821491 -1.359966 0.000000 0.000000 0.000000 7.125000 0.000000 0.000000 7.919748 28.527052 3.203997
34.551158 14.955120 -0.423257 -128.940050 -88.020795 125.944239 0.000000 0.000000 0.000000 -17.571985 -13.419295 -28.018949 10.142059 17.484498 59.955942 0.793073 4.412573 -18.987640 0.927713 -6.135750 -17.178770 0.000000 0.000000 0.000000 31.465681 11.141249 0.592470 -3.148958 -10.931737 32.050692 -3.140929 -11.625040 -39.004957 -0.916403 6.099252 -17.072788 0.925040 1.314418 9.362837 1.004184 1.555402 6.327648 0.390649 0.679656 1.314019 3.885789 3.293474 -10.603184 -1.573079 3.852237 20.737372 -0.794527 1.857545 8.289509 0.000000 0.000000 0.000000 0.202893 3.705003 -19.568951 17.549040 -27.575764 4.338483 20.796728 3.518821 -5.510154 0.000000 0.000000 0.000000 -7.125000 0.000000 0.000000 -4.941483 35.834850 -1.116499 0.000000 0.000000 0.000000 -5.345707 3.056342 31.361924 -19.357326 -29.860177 -5.207647 -16.307067 -20.032122 -1.350560 0.000000 0.000000 0.000000 7.125000 0.000000 0.000000 7.961136 28.536728 3.219142
34.340968 14.969820 -0.421714 -126.526558 -88.173729 123.686912 0.000000 0.000000 0.000000 -17.488076 -14.433853 -28.250255 9.046118 16.832002 56.241338 0.819998 4.525576 -19.328938 0.873489 -5.958075 -16.663159 0.000000 0.000000 0.000000 31.527337 10.627888 1.784208 -2.963200 -10.634557 31.057686 -3.168642 -11.709433 -39.189381 -0.878229 5.974231 -16.709675 0.983343 1.368804 9.283628 0.887530 1.638641 6.253181 0.231852 0.727975 1.284663 3.874981 3.163949 -10.611294 -1.426025 3.642289 20.766962 -0.765583 1.771755 8.291856 0.000000 0.000000 0.000000 0.281880 4.066977 -19.187364 17.303669 -27.256309 4.225522 20.723258 3.957663 -5.659249 0.000000 0.000000 0.000000 -7.125000 0.000000 0.000000 -5.017420 35.989658 -1.114755 0.000000 0.000000 0.000000 -5.326229 3.152706 31.387668 -19.591857 -30.147420 -5.324875 -16.285437 -20.211225 -1.321446 0.000000 0.000000 0.000000 7.125000 0.000000 0.000000 7.979936 28.566682 3.221142
34.130792 14.982019 -0.418336 -124.797823 -88.334716 122.089192 0.000000 0.000000 0.000000 -17.478098 -15.423534 -28.228935 8.007693 16.119382 52.581170 0.828124 4.740139 -19.544727 0.791829 -5.678837 -15.855744 0.000000 0.000000 0.000000 31.524409 10.048468 2.972447 -2.782316 -10.333445 30.063955 -3.186126 -11.750783 -39.298162 -0.853451 5.891613 -16.470294 0.983895 1.426874 9.196479 0.769888 1.720986 6.197828 0.105011 0.773750 1.278468 3.878745 3.046198 -10.640705 -1.288982 3.447606 20.795275 -0.740544 1.693441 8.298988 0.000000 0.000000 0.000000 0.351684 4.432850 -18.832998 17.105281 -26.996332 4.135069 20.696307 4.379379 -5.923468 0.000000 0.000000 0.000000 -7.125000 0.000000 0.000000 -5.066560 36.269052 -1.091036 0.000000 0.000000 0.000000 -5.304187 3.222698 31.347825 -19.784466 -30.381723 -5.421980 -16.291691 -20.355684 -1.292709 0.000000 0.000000 0.000000 7.125000 0.000000 0.000000 7.977208 28.596408 3.214399
